<?xml version="1.0" encoding="UTF-8" standalone="no"?>
<!-- Created with Inkscape (http://www.inkscape.org/) -->

<svg
   xmlns:dc="http://purl.org/dc/elements/1.1/"
   xmlns:cc="http://creativecommons.org/ns#"
   xmlns:rdf="http://www.w3.org/1999/02/22-rdf-syntax-ns#"
   xmlns:svg="http://www.w3.org/2000/svg"
   xmlns="http://www.w3.org/2000/svg"
   version="1.1"
   width="182.37167"
   height="194.97626"
   id="svg3011"
   xml:space="preserve"><metadata
     id="metadata3017"><rdf:RDF><cc:Work
         rdf:about=""><dc:format>image/svg+xml</dc:format><dc:type
           rdf:resource="http://purl.org/dc/dcmitype/StillImage" /><dc:title></dc:title></cc:Work></rdf:RDF></metadata><defs
     id="defs3015"><clipPath
       id="clipPath3025"><path
         d="M 0,200 200,200 200,0 0,0 0,200 z"
         id="path3027" /></clipPath></defs><g
     transform="matrix(1.25,0,0,-1.25,-39.859319,222.489)"
     id="g3019"><g
       id="g3021"><g
         clip-path="url(#clipPath3025)"
         id="g3023"><g
           transform="translate(104.8359,177.9912)"
           id="g3029"><path
             d="M 0,0 C 0,0 -164.134,-155.981 0,-155.981 164.135,-155.981 0,0 0,0"
             id="path3031"
             style="fill:#3d322e;fill-opacity:1;fill-rule:nonzero;stroke:none" /></g><g
           transform="translate(104.8359,172.3457)"
           id="g3033"><path
             d="M 0,0 C 0,0 -152.253,-144.691 0,-144.691 152.256,-144.691 0,0 0,0"
             id="path3035"
             style="fill:#7f4d33;fill-opacity:1;fill-rule:nonzero;stroke:none" /></g><g
           transform="translate(104.8301,172.3457)"
           id="g3037"><path
             d="M 0,0 C 0,0 -48.531,-144.691 0,-144.691 -38.694,-134.52 0,0 0,0"
             id="path3039"
             style="fill:#674230;fill-opacity:1;fill-rule:nonzero;stroke:none" /></g><g
           transform="translate(104.8408,172.3462)"
           id="g3041"><path
             d="M 0,0 C 0,0 48.532,-144.692 0,-144.692 38.694,-134.52 0,0 0,0"
             id="path3043"
             style="fill:#674230;fill-opacity:1;fill-rule:nonzero;stroke:none" /></g><g
           transform="translate(104.8174,172.3457)"
           id="g3045"><path
             d="M 0,0 C 0,0 -113.042,-144.691 0,-144.691 -103.321,-140.422 0,0 0,0"
             id="path3047"
             style="fill:#674230;fill-opacity:1;fill-rule:nonzero;stroke:none" /></g><g
           transform="translate(104.8418,172.3457)"
           id="g3049"><path
             d="M 0,0 C 0,0 113.042,-144.691 0,-144.691 103.321,-140.422 0,0 0,0"
             id="path3051"
             style="fill:#674230;fill-opacity:1;fill-rule:nonzero;stroke:none" /></g><g
           transform="translate(104.8301,172.3457)"
           id="g3053"><path
             d="M 0,0 C 0,0 -78.043,-144.691 0,-144.691 -69.558,-140.75 0,0 0,0"
             id="path3055"
             style="fill:#674230;fill-opacity:1;fill-rule:nonzero;stroke:none" /></g><g
           transform="translate(104.8174,172.3457)"
           id="g3057"><path
             d="M 0,0 C 0,0 78.043,-144.691 0,-144.691 69.559,-140.75 0,0 0,0"
             id="path3059"
             style="fill:#674230;fill-opacity:1;fill-rule:nonzero;stroke:none" /></g><g
           transform="translate(104.8418,172.3457)"
           id="g3061"><path
             d="M 0,0 C 0,0 139.338,-144.691 0,-144.691 131.114,-141.733 0,0 0,0"
             id="path3063"
             style="fill:#674230;fill-opacity:1;fill-rule:nonzero;stroke:none" /></g><g
           transform="translate(104.8418,172.3457)"
           id="g3065"><path
             d="M 0,0 C 0,0 -139.338,-144.691 0,-144.691 -131.114,-141.733 0,0 0,0"
             id="path3067"
             style="fill:#674230;fill-opacity:1;fill-rule:nonzero;stroke:none" /></g><g
           transform="translate(104.8418,172.3584)"
           id="g3069"><path
             d="M 0,0 C 0,0 6.563,-142.401 0,-144.69 -6.563,-146.979 0,0 0,0"
             id="path3071"
             style="fill:#674230;fill-opacity:1;fill-rule:nonzero;stroke:none" /></g></g></g></g></svg>